<svg xmlns="http://www.w3.org/2000/svg" viewBox="0 0 127.91 125.97"><defs><style>.a{fill:#23d57c;opacity:0.3;}.b,.c{fill:#0094f2;}.c{stroke:#0094f2;stroke-miterlimit:10;}.d{fill:#fbb040;}.e{fill:#23d67c;}.f{fill:#fff;}</style></defs><rect class="a" x="9.75" y="7.81" width="118.16" height="118.16" rx="59.08"/><path class="b" d="M48.43,93.64h1.69a.84.84,0,0,0,0-1.68H48.43a.84.84,0,1,0,0,1.68Z"/><path class="b" d="M58.55,93.64h1.68a.84.84,0,1,0,0-1.68H58.55a.84.84,0,1,0,0,1.68Z"/><path class="b" d="M58.55,63.3h1.68a.85.85,0,1,0,0-1.69H58.55a.85.85,0,0,0,0,1.69Z"/><path class="b" d="M63.61,93.64h1.68a.84.84,0,1,0,0-1.68H63.61a.84.84,0,1,0,0,1.68Z"/><path class="b" d="M53.49,63.3h1.69a.85.85,0,0,0,0-1.69H53.49a.85.85,0,0,0,0,1.69Z"/><path class="b" d="M48.43,63.3h1.69a.85.85,0,0,0,0-1.69H48.43a.85.85,0,0,0,0,1.69Z"/><path class="b" d="M90.58,83.53a.85.85,0,0,0-.85.84V92.8a2.53,2.53,0,0,1-2.52,2.53H46.75a2.53,2.53,0,0,1-2.53-2.53V59.08c0-1.53,1.42-2.62,2.77-3l25.36-7.61c.51-.21,2.17-.66,3.09,0a2.52,2.52,0,0,1,.81,2.21.84.84,0,0,0,1.68,0,4,4,0,0,0-1.55-3.6c-1.81-1.23-4.37-.25-4.59-.16L46.53,54.48c-2,.54-4,2.17-4,4.6V92.8A4.22,4.22,0,0,0,46.75,97H87.21a4.22,4.22,0,0,0,4.21-4.21V84.37A.85.85,0,0,0,90.58,83.53Z"/><path class="b" d="M63.61,63.3h1.68a.85.85,0,0,0,0-1.69H63.61a.85.85,0,1,0,0,1.69Z"/><path class="b" d="M53.49,93.64h1.69a.84.84,0,0,0,0-1.68H53.49a.84.84,0,1,0,0,1.68Z"/><path class="b" d="M91.42,73.41V62.46a4.22,4.22,0,0,0-4.21-4.22H55.68l26.64-5.07a2.14,2.14,0,0,1,1.62.34,2.73,2.73,0,0,1,.74,2.2.84.84,0,1,0,1.68,0A4.27,4.27,0,0,0,85,52.19a3.87,3.87,0,0,0-3-.68l-35.4,6.75a.84.84,0,0,0,.16,1.67H87.21a2.52,2.52,0,0,1,2.52,2.53V73.41H72.88a1.69,1.69,0,0,0-1.69,1.69v5.06a1.69,1.69,0,0,0,1.69,1.68H91.42a1.69,1.69,0,0,0,1.69-1.68V75.1A1.69,1.69,0,0,0,91.42,73.41ZM72.88,80.16V75.1H91.42v5.06Z"/><path class="b" d="M80.46,63.3a.85.85,0,1,0,0-1.69H78.78a.85.85,0,1,0,0,1.69Z"/><path class="b" d="M75.41,63.3a.85.85,0,0,0,0-1.69H73.72a.85.85,0,0,0,0,1.69Z"/><path class="b" d="M85.52,63.3a.85.85,0,0,0,0-1.69H83.83a.85.85,0,0,0,0,1.69Z"/><path class="c" d="M75.43,76.79h0a.84.84,0,0,0-.84.84.85.85,0,0,0,.85.84.84.84,0,0,0,0-1.68Z"/><path class="b" d="M75.41,93.64a.84.84,0,0,0,0-1.68H73.72a.84.84,0,0,0,0,1.68Z"/><path class="b" d="M85.52,93.64a.84.84,0,0,0,0-1.68H83.83a.84.84,0,0,0,0,1.68Z"/><path class="b" d="M68.66,63.3h1.69a.85.85,0,0,0,0-1.69H68.66a.85.85,0,0,0,0,1.69Z"/><path class="b" d="M68.66,93.64h1.69a.84.84,0,0,0,0-1.68H68.66a.84.84,0,0,0,0,1.68Z"/><path class="b" d="M80.46,93.64a.84.84,0,1,0,0-1.68H78.78a.84.84,0,1,0,0,1.68Z"/><circle class="d" cx="69.51" cy="46.42" r="9.67"/><path class="b" d="M69.51,56.85A10.43,10.43,0,1,1,79.93,46.42,10.44,10.44,0,0,1,69.51,56.85Zm0-19.35a8.93,8.93,0,1,0,8.92,8.92A8.94,8.94,0,0,0,69.51,37.5Z"/><path class="b" d="M69.51,53.87a.68.68,0,0,1-.68-.68.67.67,0,0,1,.68-.67,6.1,6.1,0,0,0,6.09-6.1.68.68,0,0,1,1.35,0,7.45,7.45,0,0,1-7.44,7.45Z"/><path class="b" d="M63.74,50.64a.65.65,0,0,1-.57-.32,7.36,7.36,0,0,1-1.11-3.9A7.45,7.45,0,0,1,69.51,39a.68.68,0,0,1,0,1.35,6.1,6.1,0,0,0-5.2,9.29.66.66,0,0,1-.22.92A.64.64,0,0,1,63.74,50.64Z"/><rect class="b" x="68.3" y="20.88" width="2.42" height="9.67"/><rect class="b" x="76.76" y="24.51" width="2.42" height="9.67"/><rect class="b" x="59.83" y="26.93" width="2.42" height="7.26"/><circle class="e" cx="13.3" cy="13.3" r="13.3"/><path class="f" d="M13.22,6.64a4.93,4.93,0,0,1,1.7.27,4,4,0,0,1,1.27.74A3.14,3.14,0,0,1,17,8.72,3.09,3.09,0,0,1,17.23,10a4.35,4.35,0,0,1-.12,1.08,2.51,2.51,0,0,1-.37.81,2.21,2.21,0,0,1-.6.58,3.91,3.91,0,0,1-.82.4,2.88,2.88,0,0,1,2.15,2.92,4,4,0,0,1-.38,1.8,3.69,3.69,0,0,1-1,1.27,4.18,4.18,0,0,1-1.45.76,5.77,5.77,0,0,1-1.72.25,6.32,6.32,0,0,1-1.65-.2A3.81,3.81,0,0,1,10,19.05,4.1,4.1,0,0,1,9,18a7.54,7.54,0,0,1-.73-1.56l1.23-.5a1.24,1.24,0,0,1,.31-.1,1.62,1.62,0,0,1,.31,0,1.06,1.06,0,0,1,.51.11.75.75,0,0,1,.34.32,3.25,3.25,0,0,0,.85,1.07,1.73,1.73,0,0,0,1.05.33,2,2,0,0,0,.81-.15,1.78,1.78,0,0,0,.56-.4,1.71,1.71,0,0,0,.35-.56,1.9,1.9,0,0,0,.11-.63,4.22,4.22,0,0,0-.06-.75,1,1,0,0,0-.32-.57,1.92,1.92,0,0,0-.8-.37,6.54,6.54,0,0,0-1.5-.13v-1.9a5.68,5.68,0,0,0,1.3-.12,2,2,0,0,0,.77-.35,1,1,0,0,0,.36-.52,2.5,2.5,0,0,0,.09-.69,1.7,1.7,0,0,0-.37-1.18,1.44,1.44,0,0,0-1.12-.41,1.7,1.7,0,0,0-.57.09,1.67,1.67,0,0,0-.46.24,1.5,1.5,0,0,0-.35.36,1.7,1.7,0,0,0-.24.44,1.21,1.21,0,0,1-.36.58.89.89,0,0,1-.59.18H10.3l-.21,0-1.45-.26a4.8,4.8,0,0,1,.54-1.69,4.09,4.09,0,0,1,1-1.2,4.25,4.25,0,0,1,1.37-.71A5.55,5.55,0,0,1,13.22,6.64Z"/></svg>