<svg xmlns="http://www.w3.org/2000/svg" xmlns:xlink="http://www.w3.org/1999/xlink" viewBox="0 0 129.46 124.44"><defs><style>.a{fill:#fff;}.b{fill:#b4c656;opacity:0.4;}.c,.f,.j,.k{fill:none;}.c,.f,.k{stroke:#819b0c;}.c{stroke-miterlimit:10;}.c,.k{stroke-width:1.5px;}.d{opacity:0.5;}.e{fill:#819b0c;}.f,.i,.j,.k{stroke-linecap:round;stroke-linejoin:round;}.g{clip-path:url(#a);}.h{fill:#9c9c9c;}.i{fill:#ffa600;}.i,.j{stroke:#b78000;}.l{fill:#a2be00;}</style><clipPath id="a"><rect class="a" x="86" y="54.91" width="16.65" height="18.74"/></clipPath></defs><rect class="b" x="11.3" y="6.28" width="118.16" height="118.16" rx="59.08"/><rect class="c" x="32.79" y="41.68" width="75.14" height="48.73" rx="11.4" transform="translate(0.58 -0.61) rotate(0.5)"/><g class="d"><path class="e" d="M44.58,50.6c2.11-1.37,4.81-1.47,7.31-1.14s5,1,7.47,1.1c4.58.13,9-1.83,13.61-1.5,2.34.17,4.64.94,7,.81,4.14-.24,8.08-3.27,12.1-2.23-1.24,1-1.21,2.87-.7,4.35s1.38,2.9,1.43,4.47c0,1.17-.38,2.31-.42,3.47a14.23,14.23,0,0,0,.94,4.23,20.26,20.26,0,0,1,.13,11c-4-.19-7.58,2.86-11.6,3.19S74,76.15,69.91,75.71s-8.11,1.18-12.21,1c-4.4-.16-9-2.35-13-.56q-.41-13-.3-26"/></g><path class="a" d="M71.3,53.77a9.59,9.59,0,0,0-7.44,3.32A8.77,8.77,0,0,0,62.1,65a8,8,0,0,0,5.79,5.56,12.15,12.15,0,0,0,5.19-.21,7.55,7.55,0,0,0,3.36-1.44,6.61,6.61,0,0,0,1.39-1.84A12.41,12.41,0,0,0,79,63.89a7.73,7.73,0,0,1-4.61,2.18,22.62,22.62,0,0,1-5.2,0,6,6,0,0,1-3.06-.86,4.42,4.42,0,0,1-1.45-3.93,8.51,8.51,0,0,1,6.23-7.48"/><path class="a" d="M72.75,55.5c-.2.53-.06,1.16-.28,1.69-.43,1-1.84,1.09-3,1,.25,1.1,2.15.85,2.68,1.86.4.77-.26,1.88.33,2.52l1.39-2a.61.61,0,0,1,.85-.28l3.23,1-1.5-2.5a.44.44,0,0,1-.08-.42.51.51,0,0,1,.31-.15,2.28,2.28,0,0,0,1.62-1.44H74.13a1,1,0,0,1-.6-.12,1.1,1.1,0,0,1-.33-.51l-.5-1.27"/><path class="f" d="M38.1,50.28A1.55,1.55,0,0,1,38,47.77a1,1,0,0,1,.31,1.3,2.78,2.78,0,0,1-1.13,1,1,1,0,0,1,.78-1.09A1,1,0,0,1,38.42,50a1,1,0,0,1-.91.78c0-.36.54-.48.78-.23a1.13,1.13,0,0,1,.18,1,1.23,1.23,0,0,1-.49.92c-.31.18-.82-.06-.75-.41a1.09,1.09,0,1,1,.54,2.06,1.4,1.4,0,1,1,2.6.93c-.48-.29,0-1.16.55-1a1,1,0,0,1,.54,1.37,1.35,1.35,0,0,1-.67-.66,2.35,2.35,0,0,1,2.69-.51.92.92,0,0,1,.52.52.44.44,0,0,1-.31.58,1.12,1.12,0,0,1-.17-2,1.47,1.47,0,0,1,2,1.06c0,.17-.31.19-.42,0a.68.68,0,0,1,0-.51,9,9,0,0,1,.55-1.9.51.51,0,0,1-.1.91,2.55,2.55,0,0,1-.27-1.14.9.9,0,0,1,.67-.87c.39-.06.8.4.6.74a1.37,1.37,0,0,1-.13-2,.4.4,0,0,1,.29.62A2.35,2.35,0,0,1,45,49.47c-.35-.53.06-1.46.66-1.29.11.33-.42.58-.68.35a.69.69,0,0,1,0-.93,1.93,1.93,0,0,1,.88-.53"/><path class="f" d="M42.53,46.94a2.66,2.66,0,0,0-2.09.9,1.36,1.36,0,0,0,.42,2c.74.28,1.49-.33,2-.89"/><path class="f" d="M37.59,56c1.35-.15,2.39,1.35,3.75,1.43,1,.05,1.85-.63,2.81-.59a2.73,2.73,0,0,0,1.24,0c.69-.31.65-1.37,1.24-1.84"/><rect class="a" x="86" y="54.91" width="16.65" height="18.74"/><g class="g"><circle class="h" cx="94.3" cy="62.65" r="3.93"/><circle class="h" cx="94.03" cy="73.86" r="7.69"/></g><rect class="i" x="37.12" y="60.54" width="12.33" height="10.98" rx="4.26"/><path class="j" d="M41.39,61.3a6.62,6.62,0,0,1,.08,2.13.49.49,0,0,1-.61.49l-2.66,0"/><path class="j" d="M38.24,66l3.19.13"/><path class="j" d="M38.27,68.27l2.91.12a.74.74,0,0,1,.55.18.72.72,0,0,1,.1.38l.14,1.7"/><path class="j" d="M44.74,71.12a6.68,6.68,0,0,1-.08-2.23.6.6,0,0,1,.14-.39.68.68,0,0,1,.49-.13l2.8,0"/><path class="j" d="M48,66.17,44.69,66"/><path class="j" d="M48,63.8,45,63.68a.72.72,0,0,1-.57-.2.74.74,0,0,1-.11-.39l-.14-1.79"/><line class="k" x1="54.08" y1="59.85" x2="68.15" y2="59.85"/><line class="k" x1="74.3" y1="59.85" x2="82.05" y2="59.85"/><line class="k" x1="54.08" y1="65.27" x2="68.15" y2="65.27"/><line class="k" x1="74.3" y1="65.27" x2="82.05" y2="65.27"/><line class="k" x1="54.08" y1="70.69" x2="68.15" y2="70.69"/><line class="k" x1="74.3" y1="70.69" x2="82.05" y2="70.69"/><line class="k" x1="40.09" y1="82.85" x2="54.16" y2="82.85"/><line class="k" x1="43.25" y1="85.94" x2="51" y2="85.94"/><line class="k" x1="88.09" y1="82.85" x2="102.16" y2="82.85"/><line class="k" x1="91.25" y1="85.94" x2="99" y2="85.94"/><circle class="l" cx="13.3" cy="13.3" r="13.3"/><path class="a" d="M13.73,6.64a5.19,5.19,0,0,1,1.73.28,4,4,0,0,1,1.31.78,3.32,3.32,0,0,1,.83,1.19,3.91,3.91,0,0,1,.29,1.51,4.34,4.34,0,0,1-.2,1.32,5.77,5.77,0,0,1-.55,1.15,8.58,8.58,0,0,1-.8,1.05c-.31.34-.63.69-1,1l-2.54,2.59a9,9,0,0,1,1-.22,4.71,4.71,0,0,1,.89-.09h2.42a1,1,0,0,1,.7.25.84.84,0,0,1,.26.64v1.6H9v-.89a1.42,1.42,0,0,1,.11-.55,1.25,1.25,0,0,1,.37-.53L13.18,14a10.93,10.93,0,0,0,.83-.92,5.23,5.23,0,0,0,.59-.85,4.36,4.36,0,0,0,.35-.85,3.68,3.68,0,0,0,.11-.89,1.71,1.71,0,0,0-.37-1.19,1.44,1.44,0,0,0-1.12-.41A1.7,1.7,0,0,0,13,9a1.83,1.83,0,0,0-.46.24,1.5,1.5,0,0,0-.35.36A1.7,1.7,0,0,0,12,10a1.26,1.26,0,0,1-.36.58.94.94,0,0,1-.59.17h-.19l-.21,0-1.45-.26a4.8,4.8,0,0,1,.54-1.69,4,4,0,0,1,2.38-1.91A5.55,5.55,0,0,1,13.73,6.64Z"/></svg>