<svg xmlns="http://www.w3.org/2000/svg" viewBox="0 0 129.46 125.97"><defs><style>.a,.b,.c{fill:#ee6937;}.a{opacity:0.3;}.c,.e{fill-rule:evenodd;}.d,.e{fill:#fff;}.f{fill:#f26531;}</style></defs><rect class="a" x="11.3" y="7.81" width="118.16" height="118.16" rx="59.08"/><path class="b" d="M53.63,83.46H54.9a.55.55,0,0,1,.32.09.49.49,0,0,1,.18.25l1.37,4.83c0,.11.06.24.09.38s.06.29.08.45c0-.16.06-.31.1-.45s.07-.27.11-.38l1.59-4.83a.6.6,0,0,1,.17-.23.52.52,0,0,1,.32-.11h.45a.55.55,0,0,1,.32.09.64.64,0,0,1,.18.25l1.57,4.83a6.4,6.4,0,0,1,.21.79c0-.15,0-.29.08-.42s.06-.26.09-.37L63.5,83.8a.49.49,0,0,1,.17-.24.52.52,0,0,1,.33-.1h1.17l-2.5,8.07H61.31L59.55,86c0-.07,0-.15-.07-.23a2.5,2.5,0,0,0-.07-.26,2.5,2.5,0,0,1-.07.26,1.55,1.55,0,0,1-.07.23l-1.78,5.51H56.14Z"/><path class="b" d="M70,91.53h-.62a.66.66,0,0,1-.31-.06.42.42,0,0,1-.17-.24l-.12-.41c-.15.13-.29.25-.43.35a2,2,0,0,1-.43.24,2.6,2.6,0,0,1-.47.16,3.24,3.24,0,0,1-.56.05,2.35,2.35,0,0,1-.67-.1,1.62,1.62,0,0,1-.53-.3,1.39,1.39,0,0,1-.34-.48,1.79,1.79,0,0,1-.12-.68,1.25,1.25,0,0,1,.17-.64,1.59,1.59,0,0,1,.56-.57A3.65,3.65,0,0,1,67,88.43a6.32,6.32,0,0,1,1.63-.17v-.34a1.32,1.32,0,0,0-.24-.86.91.91,0,0,0-.71-.27,1.71,1.71,0,0,0-.55.07,2.38,2.38,0,0,0-.39.18l-.31.17a.52.52,0,0,1-.3.08.36.36,0,0,1-.24-.07.55.55,0,0,1-.16-.18l-.26-.44a3.43,3.43,0,0,1,2.39-.9,2.28,2.28,0,0,1,.89.16A1.86,1.86,0,0,1,69.82,87a2.56,2.56,0,0,1,.15.89Zm-2.68-.86a2.34,2.34,0,0,0,.39,0,1.38,1.38,0,0,0,.34-.12,1.66,1.66,0,0,0,.3-.19,2.32,2.32,0,0,0,.3-.26v-1a4.85,4.85,0,0,0-1,.08,2.67,2.67,0,0,0-.65.19.75.75,0,0,0-.34.28.58.58,0,0,0-.11.34.58.58,0,0,0,.22.52A.89.89,0,0,0,67.29,90.67Z"/><path class="b" d="M72.84,83.24v8.29H71.47V83.24Z"/><path class="b" d="M75.92,83.24v8.29H74.54V83.24Z"/><path class="b" d="M79.9,85.71a2.64,2.64,0,0,1,1,.18,2.09,2.09,0,0,1,.79.5,2.2,2.2,0,0,1,.51.82,3.13,3.13,0,0,1,.19,1.1,1.84,1.84,0,0,1,0,.26.34.34,0,0,1,0,.16.16.16,0,0,1-.1.08.33.33,0,0,1-.15,0H78.52A1.92,1.92,0,0,0,79,90.13a1.43,1.43,0,0,0,1.09.41,2,2,0,0,0,.58-.07,2.79,2.79,0,0,0,.42-.18l.32-.17a.56.56,0,0,1,.26-.08.24.24,0,0,1,.15,0,.28.28,0,0,1,.1.09l.41.5a2.44,2.44,0,0,1-.52.45,2.93,2.93,0,0,1-.59.29,3.64,3.64,0,0,1-.63.16c-.22,0-.42,0-.62,0a3.08,3.08,0,0,1-1.11-.2,2.58,2.58,0,0,1-.9-.58,2.73,2.73,0,0,1-.59-1,3.64,3.64,0,0,1-.22-1.33,3.1,3.1,0,0,1,.19-1.1,2.92,2.92,0,0,1,.54-.9,2.7,2.7,0,0,1,.87-.6A2.81,2.81,0,0,1,79.9,85.71Zm0,1A1.33,1.33,0,0,0,79,87a1.71,1.71,0,0,0-.43,1h2.59a1.7,1.7,0,0,0-.08-.51,1,1,0,0,0-.22-.41,1.1,1.1,0,0,0-.38-.29A1.43,1.43,0,0,0,79.93,86.7Z"/><path class="b" d="M85.43,91.62a1.48,1.48,0,0,1-1.14-.43,1.59,1.59,0,0,1-.4-1.16V86.84h-.58a.3.3,0,0,1-.2-.08.29.29,0,0,1-.08-.21V86l.92-.15.29-1.56a.31.31,0,0,1,.11-.18.32.32,0,0,1,.2-.06h.71v1.8h1.51v1H85.26v3.1a.63.63,0,0,0,.14.42.49.49,0,0,0,.35.15.67.67,0,0,0,.22,0l.15-.06.11-.06.1,0a.18.18,0,0,1,.11,0l.08.09.41.67a2.11,2.11,0,0,1-.69.38A2.75,2.75,0,0,1,85.43,91.62Z"/><path class="b" d="M49.66,102.13a1.94,1.94,0,0,0,.78-.15,1.67,1.67,0,0,0,.58-.4,2.09,2.09,0,0,0,.36-.64,2.75,2.75,0,0,0,.12-.84V95.27H53v4.83a3.57,3.57,0,0,1-.23,1.33,3,3,0,0,1-.66,1.06,3.14,3.14,0,0,1-1.06.69,3.82,3.82,0,0,1-1.39.25,3.88,3.88,0,0,1-1.4-.25,3.2,3.2,0,0,1-1-.69,3,3,0,0,1-.66-1.06,3.57,3.57,0,0,1-.23-1.33V95.27h1.5v4.83a2.68,2.68,0,0,0,.12.83,2,2,0,0,0,.36.64,1.5,1.5,0,0,0,.58.41A1.94,1.94,0,0,0,49.66,102.13Z"/><path class="b" d="M54.51,105.21V97.62h.84a.41.41,0,0,1,.23.06.26.26,0,0,1,.12.19l.12.53a2.89,2.89,0,0,1,.79-.65,2.2,2.2,0,0,1,1-.24,1.82,1.82,0,0,1,1.53.76,2.8,2.8,0,0,1,.43.92,4.61,4.61,0,0,1,.16,1.24,3.76,3.76,0,0,1-.18,1.19,3,3,0,0,1-.49.95,2.29,2.29,0,0,1-.78.63,2.23,2.23,0,0,1-1,.22,2.05,2.05,0,0,1-.83-.15,2,2,0,0,1-.6-.41v2.35Zm2.68-6.61a1.45,1.45,0,0,0-.74.18,2,2,0,0,0-.56.51v2.56a1.22,1.22,0,0,0,.51.41,1.63,1.63,0,0,0,.59.11,1.48,1.48,0,0,0,.57-.11,1.14,1.14,0,0,0,.43-.36,1.81,1.81,0,0,0,.27-.61,3.6,3.6,0,0,0,.09-.86,3.51,3.51,0,0,0-.08-.85A1.52,1.52,0,0,0,58,99a.84.84,0,0,0-.36-.32A1.13,1.13,0,0,0,57.19,98.6Z"/><path class="b" d="M62.85,97.51a3.13,3.13,0,0,1,.7.08,2.32,2.32,0,0,1,.59.22h1.64v.51a.28.28,0,0,1-.06.2.38.38,0,0,1-.23.1l-.52.1a1.58,1.58,0,0,1,.09.31,1.79,1.79,0,0,1,0,.34,1.71,1.71,0,0,1-.64,1.35,2.17,2.17,0,0,1-.71.37,3.13,3.13,0,0,1-.89.13,3.36,3.36,0,0,1-.63-.06.46.46,0,0,0-.26.36.27.27,0,0,0,.16.26,1.27,1.27,0,0,0,.41.11,3.57,3.57,0,0,0,.59,0l.68,0c.23,0,.45.06.67.1a2.06,2.06,0,0,1,.59.22,1.21,1.21,0,0,1,.42.42,1.29,1.29,0,0,1,.16.66,1.63,1.63,0,0,1-.19.74,1.91,1.91,0,0,1-.54.64,2.75,2.75,0,0,1-.87.45,3.79,3.79,0,0,1-1.17.17,4.72,4.72,0,0,1-1.13-.12,2.83,2.83,0,0,1-.8-.34,1.53,1.53,0,0,1-.47-.48,1.16,1.16,0,0,1-.15-.57,1,1,0,0,1,.24-.68,1.77,1.77,0,0,1,.68-.43,1,1,0,0,1-.34-.31,1,1,0,0,1-.13-.51.8.8,0,0,1,0-.26.82.82,0,0,1,.14-.28,1.31,1.31,0,0,1,.23-.25,1.33,1.33,0,0,1,.33-.21,1.91,1.91,0,0,1-.69-.63,1.7,1.7,0,0,1-.25-.91,1.74,1.74,0,0,1,.17-.77,2,2,0,0,1,.48-.59,2.23,2.23,0,0,1,.72-.37A3.21,3.21,0,0,1,62.85,97.51Zm1.52,6.07a.41.41,0,0,0-.1-.28.7.7,0,0,0-.28-.17,2,2,0,0,0-.4-.09,3.91,3.91,0,0,0-.49,0h-.54A2.33,2.33,0,0,1,62,103a1.32,1.32,0,0,0-.38.31.63.63,0,0,0-.14.4.54.54,0,0,0,.08.28.59.59,0,0,0,.24.23,1.56,1.56,0,0,0,.42.15,3.87,3.87,0,0,0,.64.05,3.26,3.26,0,0,0,.67-.06,1.64,1.64,0,0,0,.46-.17.63.63,0,0,0,.26-.25A.56.56,0,0,0,64.37,103.58Zm-1.52-3.24a1.47,1.47,0,0,0,.45-.07,1,1,0,0,0,.32-.19.91.91,0,0,0,.25-.68.92.92,0,0,0-.25-.67,1.3,1.3,0,0,0-1.53,0,.88.88,0,0,0-.25.67,1.1,1.1,0,0,0,.06.37.91.91,0,0,0,.19.3.87.87,0,0,0,.32.2A1.5,1.5,0,0,0,62.85,100.34Z"/><path class="b" d="M66.7,103.34V97.62h.81a.47.47,0,0,1,.3.07.52.52,0,0,1,.11.27l.08.69a2.82,2.82,0,0,1,.72-.83,1.51,1.51,0,0,1,.93-.31,1.2,1.2,0,0,1,.7.19l-.18,1a.21.21,0,0,1-.07.14.24.24,0,0,1-.15,0,.79.79,0,0,1-.23,0,1.92,1.92,0,0,0-.38,0,1.15,1.15,0,0,0-.74.24,1.8,1.8,0,0,0-.52.69v3.57Z"/><path class="b" d="M75.64,103.34H75a.68.68,0,0,1-.31-.06.42.42,0,0,1-.17-.24l-.12-.41A3.3,3.3,0,0,1,74,103a2.3,2.3,0,0,1-.43.25,3.23,3.23,0,0,1-.47.15,3.15,3.15,0,0,1-.56.05,2.41,2.41,0,0,1-.67-.1,1.6,1.6,0,0,1-.53-.29,1.44,1.44,0,0,1-.34-.49,1.79,1.79,0,0,1-.12-.68,1.39,1.39,0,0,1,.17-.64,1.59,1.59,0,0,1,.56-.57,3.65,3.65,0,0,1,1.06-.42,6.79,6.79,0,0,1,1.63-.17v-.34a1.32,1.32,0,0,0-.24-.86.9.9,0,0,0-.7-.27,1.78,1.78,0,0,0-.56.07l-.39.18-.3.18a.67.67,0,0,1-.31.07.4.4,0,0,1-.24-.07.55.55,0,0,1-.16-.18l-.25-.44a3.39,3.39,0,0,1,2.38-.9,2.28,2.28,0,0,1,.89.16,1.9,1.9,0,0,1,.67.46,2.14,2.14,0,0,1,.42.7,2.81,2.81,0,0,1,.14.89ZM73,102.48a1.61,1.61,0,0,0,.39,0,1.93,1.93,0,0,0,.34-.11,3,3,0,0,0,.3-.19,3.65,3.65,0,0,0,.3-.27v-1a5.53,5.53,0,0,0-1,.08,2.54,2.54,0,0,0-.65.19.79.79,0,0,0-.35.28.6.6,0,0,0-.11.34.61.61,0,0,0,.22.52A.89.89,0,0,0,73,102.48Z"/><path class="b" d="M81.08,103.34a.36.36,0,0,1-.36-.25l-.11-.55a4.17,4.17,0,0,1-.37.36,3.07,3.07,0,0,1-.42.28,3.12,3.12,0,0,1-.49.18,2.47,2.47,0,0,1-.56.06,1.82,1.82,0,0,1-1.53-.76,2.62,2.62,0,0,1-.43-.92,4.31,4.31,0,0,1-.16-1.25,3.79,3.79,0,0,1,.18-1.18,3,3,0,0,1,.49-1,2.33,2.33,0,0,1,.78-.62,2.12,2.12,0,0,1,1-.23,2,2,0,0,1,.82.15,2.33,2.33,0,0,1,.61.41v-3h1.38v8.29Zm-1.84-1a1.39,1.39,0,0,0,.73-.18,2.23,2.23,0,0,0,.57-.51V99.08a1.47,1.47,0,0,0-.51-.41,1.63,1.63,0,0,0-.59-.11,1.48,1.48,0,0,0-.57.11,1.14,1.14,0,0,0-.43.36,1.66,1.66,0,0,0-.27.6,3.56,3.56,0,0,0-.1.86,3.4,3.4,0,0,0,.09.85,1.51,1.51,0,0,0,.23.57.81.81,0,0,0,.37.32A1.06,1.06,0,0,0,79.24,102.33Z"/><path class="b" d="M85.83,97.53a2.64,2.64,0,0,1,1,.17,2.09,2.09,0,0,1,.79.5,2.28,2.28,0,0,1,.51.82,3.13,3.13,0,0,1,.18,1.1,2,2,0,0,1,0,.26.5.5,0,0,1-.05.16.16.16,0,0,1-.1.08.33.33,0,0,1-.15,0H84.45a2,2,0,0,0,.47,1.29,1.48,1.48,0,0,0,1.1.42,1.91,1.91,0,0,0,.57-.08,2.57,2.57,0,0,0,.43-.17l.32-.18a.56.56,0,0,1,.26-.08.33.33,0,0,1,.15,0,.28.28,0,0,1,.1.09l.4.5a2.17,2.17,0,0,1-.51.45,3.15,3.15,0,0,1-1.22.45,4.54,4.54,0,0,1-.63,0,3,3,0,0,1-1.11-.2,2.41,2.41,0,0,1-.89-.58,2.73,2.73,0,0,1-.59-1,3.6,3.6,0,0,1-.22-1.33,3.1,3.1,0,0,1,.19-1.1,2.58,2.58,0,0,1,.54-.9,2.7,2.7,0,0,1,.87-.6A2.81,2.81,0,0,1,85.83,97.53Zm0,1a1.31,1.31,0,0,0-1,.34,1.71,1.71,0,0,0-.43,1h2.59a1.7,1.7,0,0,0-.08-.51,1.25,1.25,0,0,0-.22-.41,1.08,1.08,0,0,0-.38-.28A1.25,1.25,0,0,0,85.86,98.51Z"/><path class="b" d="M93.51,103.34a.34.34,0,0,1-.35-.25l-.12-.55a3.15,3.15,0,0,1-.37.36,3.07,3.07,0,0,1-.42.28,3.12,3.12,0,0,1-.49.18,2.47,2.47,0,0,1-.56.06,1.82,1.82,0,0,1-1.53-.76,2.62,2.62,0,0,1-.43-.92,4.68,4.68,0,0,1-.16-1.25,3.79,3.79,0,0,1,.18-1.18,3,3,0,0,1,.49-1,2.33,2.33,0,0,1,.78-.62,2.12,2.12,0,0,1,1-.23,2,2,0,0,1,.82.15,2.33,2.33,0,0,1,.61.41v-3h1.38v8.29Zm-1.84-1a1.39,1.39,0,0,0,.73-.18,2.23,2.23,0,0,0,.57-.51V99.08a1.31,1.31,0,0,0-.51-.41,1.63,1.63,0,0,0-.59-.11,1.48,1.48,0,0,0-.57.11,1.14,1.14,0,0,0-.43.36,1.66,1.66,0,0,0-.27.6,3.6,3.6,0,0,0-.09.86,3.45,3.45,0,0,0,.08.85,1.51,1.51,0,0,0,.23.57.81.81,0,0,0,.37.32A1.06,1.06,0,0,0,91.67,102.33Z"/><path class="c" d="M91.09,47.18c-.16-.68-.42-1.47-.63-2.1a19.76,19.76,0,0,0-3.14-5.66c-.11-.21-2.57-3.19-3.36-3.19a.57.57,0,0,0-.57.57c0,.37.26.47.68.89A15.59,15.59,0,0,1,85.33,39a11,11,0,0,1,1.25,1.52,20.56,20.56,0,0,1,3.15,6.35A12.72,12.72,0,0,1,90.2,49a21.65,21.65,0,0,1,.31,2.57V53a20.17,20.17,0,0,1-.31,2.62,25.56,25.56,0,0,1-.84,3.19c-.21.53-.47,1.21-.73,1.79a19.34,19.34,0,0,1-5.72,7.18c-.31.21-.26.31-.26.52s.06.68.58.68,2.83-2.36,2.88-2.41c.53-.63,1.1-1.26,1.52-1.83a25.23,25.23,0,0,0,2.05-3.41,12.77,12.77,0,0,0,.73-1.73,23.51,23.51,0,0,0,.89-3.14,22.17,22.17,0,0,0,.42-2.73V50.8A30.26,30.26,0,0,0,91.09,47.18Z"/><path class="c" d="M93.25,59.13c-.69,0-.74.68-.9,1.15a34.73,34.73,0,0,1-2.56,4.93c-.06.05-.06.16-.06.32a.62.62,0,0,0,.58.62c1,0,3.56-6,3.56-6.44A.72.72,0,0,0,93.25,59.13Z"/><path class="c" d="M94.58,47.55a20.72,20.72,0,0,0-2.36-6.66c-.21-.37-.52-1.47-1.2-1.47a.53.53,0,0,0-.58.58,29.22,29.22,0,0,0,1.26,2.67,9.78,9.78,0,0,1,.63,1.52,11.58,11.58,0,0,1,.42,1.21,4.42,4.42,0,0,1,.31,1.1,10.21,10.21,0,0,1,.37,1.68c.16.78.26,1.67.37,2.46v3.14c-.11,1.11-.48,3.15-.48,3.31s.21.68.63.68c.11,0,.53-.32.53-.42a21.16,21.16,0,0,0,.57-5.14A22.67,22.67,0,0,0,94.58,47.55Z"/><path class="c" d="M86.48,33.71c-.63-.47-1.31-1.05-1.83-1.42A21.73,21.73,0,0,0,81,30.2a14.22,14.22,0,0,0-1.88-.79,22,22,0,0,0-2.36-.73,26.12,26.12,0,0,0-6-.74,24.67,24.67,0,0,0-4.87.48,26.16,26.16,0,0,0-7.66,3,25.46,25.46,0,0,0-9.75,11.17,14.14,14.14,0,0,0-.83,2.51c0,.21.05.68.57.68.74,0,.79-1.36,1.05-1.78s.37-.89.52-1.26a22,22,0,0,1,5.93-7.91,23,23,0,0,1,6.6-4,22.1,22.1,0,0,1,8.44-1.57,25.4,25.4,0,0,1,4.82.47,31.87,31.87,0,0,1,3.09.9A24.08,24.08,0,0,1,88.79,37.9a.89.89,0,0,0,.47.21.63.63,0,0,0,.58-.63C89.84,36.75,86.54,33.76,86.48,33.71Z"/><path class="c" d="M47.53,47.42c-1,0-.62,1.73-.78,2.2a2,2,0,0,1,0,.57l-.16,5.93c0,.31.42.57.63.57s.47-.26.63-.63V52.34l.36-4.29A.71.71,0,0,0,47.53,47.42Z"/><path class="c" d="M61.54,37c-.84,0-4.2,3.2-4.77,4a18.75,18.75,0,0,0-2.42,3.88,6.1,6.1,0,0,0-.47,1.36.72.72,0,0,0,.63.63.73.73,0,0,0,.42-.21,12.91,12.91,0,0,0,.63-1.36,6.52,6.52,0,0,1,.68-1.31,12.53,12.53,0,0,1,1-1.52,15.8,15.8,0,0,1,3.19-3.3c.48-.42,1.11-.74,1.58-1.15a.69.69,0,0,0,.21-.48C62.22,37.17,61.85,37,61.54,37Z"/><path class="c" d="M87.45,46.76a.6.6,0,0,0-.63.58c0,.1.32,1.31.42,1.94a18.61,18.61,0,0,1,.32,2.46v1a18.16,18.16,0,0,1-1.1,5.39,25.21,25.21,0,0,1-1.68,3.31,18.13,18.13,0,0,1-5.87,5.45,5.85,5.85,0,0,1-1.15.57c-.58.21-.74.42-.74.79a.63.63,0,0,0,.58.63,17.11,17.11,0,0,0,2.57-1.26A17.84,17.84,0,0,0,87.82,58a16.69,16.69,0,0,0,.94-5.77C88.76,51.74,88.61,46.76,87.45,46.76Z"/><path class="c" d="M82.11,38.16a21,21,0,0,0-2.83-1.88c-.58-.26-1.21-.63-1.78-.84a16.64,16.64,0,0,0-6.71-1.26c-.53,0-6,.21-6,1.47a.64.64,0,0,0,.63.63c.15,0,1.15-.37,1.67-.47a12.09,12.09,0,0,1,2.42-.37h1.31a12.07,12.07,0,0,1,3.72.37,18,18,0,0,1,4.82,1.94,17.73,17.73,0,0,1,4.82,4.4c.32.42.63,1.15,1.21,1.15a.63.63,0,0,0,.57-.63C85.93,41.73,82.58,38.53,82.11,38.16Z"/><path class="c" d="M68.14,39.58A12.4,12.4,0,0,0,63,41.83c-.36.32-2.36,1.84-2.36,2.57,0,.26.06.63.58.63a.65.65,0,0,0,.42-.16A20.29,20.29,0,0,1,63.53,43a8.06,8.06,0,0,1,1.83-1.21,3.58,3.58,0,0,1,.89-.42,6.08,6.08,0,0,1,1.52-.52c.47-.16,1.1-.16,1.1-.79C68.87,39.79,68.51,39.58,68.14,39.58Z"/><path class="c" d="M75.48,73.86c-.16,0-1.37.31-2,.42a15.2,15.2,0,0,1-2.68.21A16,16,0,0,1,66.67,74a6.54,6.54,0,0,0-.89-.16.6.6,0,0,0-.63.58c0,.1.16.52.42.57a14.16,14.16,0,0,0,5.24.74,25.13,25.13,0,0,0,2.68-.21c.52-.06,1-.21,1.57-.32a3.65,3.65,0,0,0,.84-.31,1,1,0,0,0,.21-.47A.63.63,0,0,0,75.48,73.86Z"/><path class="c" d="M70.84,42.36a10.91,10.91,0,0,0-8.65,4.3,7.29,7.29,0,0,0-1.36,2.88.63.63,0,0,0,.57.63.72.72,0,0,0,.48-.21,19,19,0,0,1,1.31-2.52,9.46,9.46,0,0,1,5.87-3.67,15.82,15.82,0,0,1,1.78-.15,8.52,8.52,0,0,1,.1,17l-3.19-.26a9.52,9.52,0,0,0-1.11,0c-.78.11-3.09,1.78-3.09,2.57a.63.63,0,0,0,.58.63c.47,0,1.05-.84,1.57-1.26A2.59,2.59,0,0,1,67,61.65a3.45,3.45,0,0,1,.79,0c.15,0,3,.26,3.19.26a9.78,9.78,0,0,0-.1-19.55Z"/><path class="c" d="M61.25,49.12c-1,0-.84,2.15-1,2.57v3.4c0,.27.47.53.63.53a.79.79,0,0,0,.63-.63V51.53c0-.16.32-1.68.32-1.78A.64.64,0,0,0,61.25,49.12Z"/><path class="c" d="M60.88,57.3a.53.53,0,0,0-.63.47V72.55c0,.26.47.47.63.47.37,0,.58-.47.63-.68V57.82C61.51,57.51,61.14,57.3,60.88,57.3Z"/><path class="c" d="M75.79,31.9c-1.1-.21-2.1-.42-3.14-.52-.63-.05-1.73-.05-1.89-.05-8.07,0-17.24,4.71-20.28,15.88a17.5,17.5,0,0,0-.58,4L50,60.1a1.51,1.51,0,0,0-.05.47,2.82,2.82,0,0,1-.32,1.1c-.26.42-.52.53-.52.84a.63.63,0,0,0,.58.63c1.15,0,1.46-2.2,1.52-2.46V51a26.57,26.57,0,0,1,.94-5A19.71,19.71,0,0,1,70.81,32.58a19,19,0,0,1,6.29,1c1.1.37,3.83,1.78,4,1.78a.6.6,0,0,0,.62-.63C81.71,33.68,76.05,32,75.79,31.9Z"/><path class="c" d="M59.33,46.89c-1,0-1.52,4.19-1.52,4.3V69.54c-.1.41-.42,1.15-.42,1.31a.55.55,0,0,0,.58.62c.84,0,1.05-1.78,1.1-2V51A32.08,32.08,0,0,1,60,47.47.62.62,0,0,0,59.33,46.89Z"/><path class="c" d="M53.54,49.54c-.89,0-.63,1.26-.73,1.89V63.74a9.41,9.41,0,0,1-.53,1.47c-.31.52-.63.68-.63,1.15a.62.62,0,0,0,.58.58c1.26,0,1.78-3.09,1.84-3.41l.1-13.31A.61.61,0,0,0,53.54,49.54Z"/><path class="c" d="M56.14,52.24c-.21,0-.48-.06-.58.42l-.05,13.88a1.57,1.57,0,0,0,0,.48A6.14,6.14,0,0,1,55,68.38a1.85,1.85,0,0,0-.32.89c0,.26.05.63.58.63,1.15,0,1.41-3.3,1.47-3.62V52.66C56.77,52.34,56.24,52.24,56.14,52.24Z"/><path class="c" d="M86.12,52.16A15.29,15.29,0,0,0,70.76,36.91a15,15,0,0,0-14.2,9.59,17.89,17.89,0,0,0-1,4.19c0,.21.21.68.63.68a.63.63,0,0,0,.42-.21A5.17,5.17,0,0,0,57,49.22c.1-.62.37-1.25.52-1.83a14.89,14.89,0,0,1,6.13-7.34,13.59,13.59,0,0,1,3.88-1.57,13.91,13.91,0,0,1,3.25-.37,14.34,14.34,0,0,1,10.54,4.82,13.84,13.84,0,0,1,3.51,8.6,17,17,0,0,1-.1,2.2c0,.16.15.68.62.68C86.17,54.41,86.12,52.47,86.12,52.16Z"/><path class="c" d="M86.06,68.91a30.35,30.35,0,0,0-3.3,2.25,19.57,19.57,0,0,1-2.2,1.21c-.47.2-.84.26-.84.78a.73.73,0,0,0,.63.63c.94,0,4.88-2.83,5.14-3,.42-.36,1.2-.73,1.2-1.31A.59.59,0,0,0,86.06,68.91Z"/><path class="c" d="M80.74,69c-.15,0-1.46.68-2.2,1a13.65,13.65,0,0,1-1.94.69,11.59,11.59,0,0,1-1.15.26c-.68.15-1.41.21-2.15.31h-.94a.59.59,0,0,0-.53.63c0,.63.53.63.9.63a18.43,18.43,0,0,0,7.49-1.89c.52-.26,1.15-.47,1.15-1A.62.62,0,0,0,80.74,69Z"/><path class="c" d="M83.1,48.46c-.1-.36-.26-.73-.36-1a6.56,6.56,0,0,1-.42-1C81.22,43.8,77.39,40.6,75,40a19,19,0,0,0-2.1-.48c-.26,0-.68.06-.68.58a.62.62,0,0,0,.37.52c.42.16.94.21,1.42.37s.83.32,1.2.42c1.84.53,5.5,3.72,6.4,6.61a14.28,14.28,0,0,1,.78,3.19,6.45,6.45,0,0,0,0,1A11.82,11.82,0,0,1,71.78,63.87l-3,.06A4.09,4.09,0,0,1,68,64c-1.68,0-4.25,1.78-4.35,3.67V68.8a3.22,3.22,0,0,0,.21.79,5.43,5.43,0,0,0,4.71,2.93.71.71,0,0,0,.79-.68.74.74,0,0,0-.37-.52c-.36-.11-.73-.06-1.1-.16a2.91,2.91,0,0,1-1.2-.42,3.07,3.07,0,0,1-1.84-2.52c0-1.73,1.94-3.14,3.72-3a7,7,0,0,0,1-.05h2.15a13.47,13.47,0,0,0,3.57-.84,12.65,12.65,0,0,0,8.33-12.1A11.52,11.52,0,0,0,83.1,48.46Z"/><path class="c" d="M84.73,56c-.11,0-.32-.1-.47.21a13.57,13.57,0,0,0-.84,2.05c-.89,2.36-4.2,5.6-6.45,6.6a18.29,18.29,0,0,1-4.77,1.42H68.37a1.86,1.86,0,0,0-1.78,1.88c0,.84.32,1.47,1.58,1.89h6.08c.47,0,1.1-.47,1.1-.89a.63.63,0,0,0-.63-.58,4.63,4.63,0,0,0-.63.21H68.27c-.31,0-.42-.52-.42-.63a.63.63,0,0,1,.47-.63H72.2c.16,0,.32-.1.47-.1a16.4,16.4,0,0,0,4.25-1.15,16.58,16.58,0,0,0,3-1.79A16.11,16.11,0,0,0,82.53,62,16.58,16.58,0,0,0,85,57.64a8.77,8.77,0,0,0,.32-1A.58.58,0,0,0,84.73,56Z"/><circle class="d" cx="85.99" cy="66.01" r="10.53"/><path class="c" d="M86,57.09a9.07,9.07,0,0,0-9.07,8.23V67.1c0,.1.16,1,.26,1.47A9.05,9.05,0,0,0,86,75.33a9.12,9.12,0,1,0,0-18.24Zm0,17a7.79,7.79,0,0,1-7.55-5.71,7.35,7.35,0,0,1-.26-1.42V65.53A7.82,7.82,0,0,1,86,58.34a7.87,7.87,0,1,1,0,15.73Z"/><path class="e" d="M86,58.37a7.87,7.87,0,1,0,7.87,7.87A7.87,7.87,0,0,0,86,58.37Z"/><path class="c" d="M90.23,61.94c-.1,0-.21,0-.26.05-1.94,2.26-3.72,4.62-5.56,6.92,0,0-2-2.3-2.62-2.3-.26,0-.57,0-.57.57a.72.72,0,0,0,0,.32c.31.36,2.57,2.93,3.2,2.93a1,1,0,0,0,.47-.15c1.67-2.1,3.35-4.25,5-6.35.31-.47.94-.94.94-1.41S90.65,61.94,90.23,61.94Z"/><circle class="f" cx="13.3" cy="13.3" r="13.3"/><path class="d" d="M15.91,14.7h1.34v1.55a.52.52,0,0,1-.14.35.51.51,0,0,1-.4.15h-.8v3H13.52v-3H8.31a.74.74,0,0,1-.47-.16.67.67,0,0,1-.26-.4L7.3,14.83l6-8h2.63Zm-2.39-3.37c0-.21,0-.44,0-.67s0-.49.06-.75L10.18,14.7h3.34Z"/></svg>